<svg width="480" height="192" fill="none" xmlns="http://www.w3.org/2000/svg"><path d="M38.4 67.104 0 92.558V192h480V47.028c-1.749-.693-4.295-.925-5.376-.979-8.417-.422-13.245 3.608-19.968 7.343l-.083.046c-1.988 1.105-6.959 3.87-16.045 3.87-9.216 0-15.616-2.61-17.664-3.916l-30.72-20.56c-4.096-2.61-13.056-7.832-23.04-7.832s-17.92 5.221-21.504 7.832l-142.08 87.629c-2.304 1.632-9.37 4.895-19.2 4.895s-16.896-3.263-19.2-4.895L82.944 64.656c-2.816-1.958-11.06-5.874-21.504-5.874-10.445 0-19.712 5.548-23.04 8.322Z" fill="url(#a)" fill-opacity=".6"/><path d="M38.4 67.104 0 92.558V192h480V47.028c-1.749-.693-4.295-.925-5.376-.979-8.417-.422-13.245 3.608-19.968 7.343l-.083.046c-1.988 1.105-6.959 3.87-16.045 3.87-9.216 0-15.616-2.61-17.664-3.916l-30.72-20.56c-4.096-2.61-13.056-7.832-23.04-7.832s-17.92 5.221-21.504 7.832l-142.08 87.629c-2.304 1.632-9.37 4.895-19.2 4.895s-16.896-3.263-19.2-4.895L82.944 64.656c-2.816-1.958-11.06-5.874-21.504-5.874-10.445 0-19.712 5.548-23.04 8.322Z" fill="#390096" fill-opacity=".2"/><path d="m0 72.558 38.4-25.454c3.328-2.774 12.595-8.322 23.04-8.322 10.445 0 18.688 3.916 21.504 5.874l82.176 55.805c2.304 1.632 9.37 4.895 19.2 4.895s16.896-3.263 19.2-4.895L345.6 12.832C349.184 10.222 357.12 5 367.104 5c9.984 0 18.944 5.222 23.04 7.832l30.72 20.56c2.048 1.305 8.448 3.916 17.664 3.916 9.216 0 14.199-2.844 16.128-3.916 6.723-3.735 11.551-7.765 19.968-7.343 1.081.055 3.627.286 5.376.98" stroke="#FF868D"/><circle cx="367.5" cy="4.5" r="4" fill="#563EAF" stroke="#FF868D"/><circle cx="62.5" cy="38.5" r="4" fill="#563EAF" stroke="#FF868D"/><defs><linearGradient id="a" x1="240" y1="43.5" x2="240" y2="171" gradientUnits="userSpaceOnUse"><stop stop-color="#fff"/><stop offset=".375" stop-color="#fff" stop-opacity=".536"/><stop offset=".609" stop-color="#fff" stop-opacity=".27"/><stop offset=".766" stop-color="#fff" stop-opacity=".151"/><stop offset="1" stop-color="#fff" stop-opacity="0"/></linearGradient></defs></svg>