<svg aria-hidden="true" style="position: absolute; width: 0; height: 0; overflow: hidden;" version="1.1" xmlns="http://www.w3.org/2000/svg" xmlns:xlink="http://www.w3.org/1999/xlink">
<defs>
<symbol id="icon-email" viewBox="0 0 32 32">
<path d="M26.667 5.333h-21.333c-1.467 0-2.653 1.2-2.653 2.667l-0.013 16c0 1.467 1.2 2.667 2.667 2.667h21.333c1.467 0 2.667-1.2 2.667-2.667v-16c0-1.467-1.2-2.667-2.667-2.667zM26.667 10.667l-10.667 6.667-10.667-6.667v-2.667l10.667 6.667 10.667-6.667v2.667z"></path>
</symbol>
<symbol id="icon-ate_range" viewBox="0 0 32 32">
<path d="M12 14.667h-2.667v2.667h2.667v-2.667zM17.333 14.667h-2.667v2.667h2.667v-2.667zM22.667 14.667h-2.667v2.667h2.667v-2.667zM25.333 5.333h-1.333v-2.667h-2.667v2.667h-10.667v-2.667h-2.667v2.667h-1.333c-1.48 0-2.653 1.2-2.653 2.667l-0.013 18.667c0 1.467 1.187 2.667 2.667 2.667h18.667c1.467 0 2.667-1.2 2.667-2.667v-18.667c0-1.467-1.2-2.667-2.667-2.667zM25.333 26.667h-18.667v-14.667h18.667v14.667z"></path>
</symbol>
<symbol id="icon-home" viewBox="0 0 38 38">
<path fill-rule="evenodd" clip-rule="evenodd" d="M6 0C2.68629 0 0 2.68629 0 6V32C0 35.3137 2.68629 38 6 38H32C35.3137 38 38 35.3137 38 32V6C38 2.68629 35.3137 0 32 0H6ZM15.9333 21.3594V29.5555H9.1V18.6274H5L18.6667 6.33325L32.3333 18.6274H28.2333V29.5555H21.4V21.3594H15.9333Z"/>
</symbol>
<symbol id="icon-lock" viewBox="0 0 32 32">
<path d="M24 10.667h-1.333v-2.667c0-3.68-2.987-6.667-6.667-6.667s-6.667 2.987-6.667 6.667v2.667h-1.333c-1.467 0-2.667 1.2-2.667 2.667v13.333c0 1.467 1.2 2.667 2.667 2.667h16c1.467 0 2.667-1.2 2.667-2.667v-13.333c0-1.467-1.2-2.667-2.667-2.667zM16 22.667c-1.467 0-2.667-1.2-2.667-2.667s1.2-2.667 2.667-2.667c1.467 0 2.667 1.2 2.667 2.667s-1.2 2.667-2.667 2.667zM20.133 10.667h-8.267v-2.667c0-2.28 1.853-4.133 4.133-4.133s4.133 1.853 4.133 4.133v2.667z"></path>
</symbol>
<symbol id="icon-dollar" viewBox="0 0 38 38" >
<path d="M6 0C2.68629 0 0 2.68629 0 6V32C0 35.3137 2.68629 38 6 38H32C35.3137 38 38 35.3137 38 32V6C38 2.68629 35.3137 0 32 0H6ZM15.7523 15.5989C15.7523 16.7809 16.6607 17.5399 19.4852 18.2741C22.3096 19.0082 25.3332 20.2151 25.3332 23.7489C25.3332 26.2996 23.4046 27.7056 20.9783 28.166V30.8412H17.2455V28.1411C14.8565 27.631 12.8159 26.1005 12.6666 23.3756H15.4039C15.5408 24.8438 16.5487 25.9885 19.1119 25.9885C21.8617 25.9885 22.4714 24.6198 22.4714 23.7613C22.4714 22.6041 21.8493 21.5092 18.7386 20.7626C15.2671 19.9289 12.8905 18.498 12.8905 15.6238C12.8905 13.2223 14.8316 11.6546 17.2455 11.132V8.44434H20.9783V11.1693C23.5788 11.8039 24.8853 13.7698 24.9724 15.91H22.2225C22.1479 14.3546 21.3267 13.297 19.1119 13.297C17.0091 13.297 15.7523 14.2426 15.7523 15.5989Z" />
</symbol>
<symbol id="icon-timeline" viewBox="0 0 38 38">
<path fill-rule="evenodd" clip-rule="evenodd" d="M6 0C2.68629 0 0 2.68629 0 6V32C0 35.3137 2.68629 38 6 38H32C35.3137 38 38 35.3137 38 32V6C38 2.68629 35.3137 0 32 0H6ZM29.5 16.5555C30.7833 16.5555 31.8333 15.4555 31.8333 14.1111C31.8333 12.7666 30.7833 11.6666 29.5 11.6666C28.2166 11.6666 27.1666 12.7666 27.1666 14.1111C27.1666 14.3311 27.19 14.5389 27.2483 14.7344L23.1066 19.0855C22.92 19.0244 22.71 19 22.5 19C22.29 19 22.08 19.0244 21.8933 19.0855L18.9183 15.9689C18.9766 15.7733 19 15.5533 19 15.3333C19 13.9889 17.95 12.8889 16.6666 12.8889C15.3833 12.8889 14.3333 13.9889 14.3333 15.3333C14.3333 15.5533 14.3566 15.7733 14.415 15.9689L9.09498 21.53C8.90831 21.4689 8.70998 21.4444 8.49998 21.4444C7.21664 21.4444 6.16664 22.5444 6.16664 23.8889C6.16664 25.2333 7.21664 26.3333 8.49998 26.3333C9.78331 26.3333 10.8333 25.2333 10.8333 23.8889C10.8333 23.6689 10.81 23.4611 10.7516 23.2655L16.06 17.6922C16.2466 17.7533 16.4566 17.7778 16.6666 17.7778C16.8766 17.7778 17.0866 17.7533 17.2733 17.6922L20.2483 20.8089C20.19 21.0044 20.1666 21.2244 20.1666 21.4444C20.1666 22.7889 21.2166 23.8889 22.5 23.8889C23.7833 23.8889 24.8333 22.7889 24.8333 21.4444C24.8333 21.2244 24.81 21.0044 24.7516 20.8089L28.905 16.47C29.0916 16.5311 29.29 16.5555 29.5 16.5555Z"/>
</symbol>
<symbol id="icon-edit" viewBox="0 0 30 32">
<path stroke-linejoin="round" stroke-linecap="round" stroke-miterlimit="4" stroke-width="2.56" d="M22.4 13.511l-4.978-4.978M3.111 27.823l4.212-0.468c0.515-0.057 0.772-0.086 1.012-0.164 0.213-0.069 0.416-0.167 0.604-0.29 0.211-0.139 0.394-0.322 0.76-0.688l16.435-16.434c1.375-1.375 1.375-3.603 0-4.978s-3.603-1.375-4.978 0l-16.434 16.434c-0.366 0.366-0.549 0.549-0.688 0.76-0.123 0.187-0.221 0.39-0.29 0.604-0.078 0.24-0.106 0.498-0.164 1.012l-0.468 4.212z"></path>
</symbol>
<symbol id="icon-exit" viewBox="0 0 32 32">
<path d="M20.051 23.237h2.499v4.997c0 2.067-1.681 3.748-3.748 3.748h-15.054c-2.066 0-3.748-1.681-3.748-3.748v-24.486c0-2.066 1.681-3.748 3.748-3.748h15.054c2.067 0 3.748 1.681 3.748 3.748v4.997h-2.499v-4.997c0-0.689-0.56-1.249-1.249-1.249h-15.054c-0.689 0-1.249 0.561-1.249 1.249v24.486c0 0.689 0.561 1.249 1.249 1.249h15.054c0.689 0 1.249-0.561 1.249-1.249v-4.997zM26.111 10.102l-1.767 1.767 2.873 2.874h-16.161v2.499h16.161l-2.873 2.873 1.767 1.767 5.889-5.889-5.889-5.89z"></path>
</symbol>
<symbol id="icon-logo" viewBox="0 0 33 32">
<path fill="#ffc727" style="fill: var(--color1, #ffc727)" d="M22.44 4.308c-2.219-0.555-4.438-1.664-6.102-3.328-1.664 1.664-3.883 2.774-6.102 3.328 0.555 4.993 2.219 8.321 6.102 11.095 3.883-2.774 6.102-6.102 6.102-11.095z"></path>
<path fill="#fff" style="fill: var(--color2, #fff)" d="M20.221 24.963l-15.533-18.307v8.876l12.204 13.869 3.329-4.438z"></path>
<path fill="#fff" style="fill: var(--color2, #fff)" d="M21.886 23.299l6.657-7.766v-8.321l-10.54 12.204 3.883 3.883z"></path>
<path fill="#fff" style="fill: var(--color2, #fff)" d="M22.44 26.073v4.993l6.102-7.212v-4.993l-6.102 7.212z"></path>
<path fill="#fff" style="fill: var(--color2, #fff)" d="M10.79 26.073l-6.102-7.212v4.993l6.102 7.212v-4.993z"></path>
</symbol>
<symbol id="icon-user" viewBox="0 0 32 32">
<path d="M16 20c-4.227 0-7.986 2.041-10.379 5.208-0.515 0.682-0.773 1.022-0.764 1.483 0.006 0.356 0.23 0.805 0.51 1.025 0.362 0.284 0.865 0.284 1.869 0.284h17.527c1.005 0 1.507 0 1.869-0.284 0.28-0.22 0.503-0.669 0.51-1.025 0.008-0.461-0.249-0.801-0.764-1.483-2.393-3.167-6.152-5.208-10.379-5.208z"></path>
<path d="M16 16c3.314 0 6-2.686 6-6s-2.686-6-6-6c-3.314 0-6 2.686-6 6s2.686 6 6 6z"></path>
</symbol>
<symbol id="icon-close" viewBox="0 0 32 32">
<path stroke-linejoin="miter" stroke-linecap="butt" stroke-miterlimit="4" stroke-width="1.7778" d="M1.778 1.778l28.444 28.444"></path>
<path stroke-linejoin="miter" stroke-linecap="butt" stroke-miterlimit="4" stroke-width="1.7778" d="M1.778 30.222l28.444-28.444"></path>
</symbol>
<symbol id="icon-chart" viewBox="0 0 40 32">
<path fill="#4a56e2" style="fill: var(--color1, #4a56e2)" opacity="0.1" d="M0 0h40.421v33.263h-40.421v-33.263z"></path>
<path fill="#000" style="fill: var(--color2, #000)" opacity="0.6" d="M3.234 21.482l-3.234 2.144v8.374h40.421v-12.208c-0.147-0.058-0.362-0.078-0.453-0.082-0.709-0.036-1.115 0.304-1.682 0.618l-0.007 0.004c-0.167 0.093-0.586 0.326-1.351 0.326-0.776 0-1.315-0.22-1.487-0.33l-2.587-1.731c-0.345-0.22-1.099-0.66-1.94-0.66s-1.509 0.44-1.811 0.66l-11.965 7.379c-0.194 0.137-0.789 0.412-1.617 0.412s-1.423-0.275-1.617-0.412l-6.92-4.699c-0.237-0.165-0.931-0.495-1.811-0.495s-1.66 0.467-1.94 0.701z"></path>
<path fill="#390096" style="fill: var(--color3, #390096)" opacity="0.2" d="M3.234 21.482l-3.234 2.144v8.374h40.421v-12.208c-0.147-0.058-0.362-0.078-0.453-0.082-0.709-0.036-1.115 0.304-1.682 0.618l-0.007 0.004c-0.167 0.093-0.586 0.326-1.351 0.326-0.776 0-1.315-0.22-1.487-0.33l-2.587-1.731c-0.345-0.22-1.099-0.66-1.94-0.66s-1.509 0.44-1.811 0.66l-11.965 7.379c-0.194 0.137-0.789 0.412-1.617 0.412s-1.423-0.275-1.617-0.412l-6.92-4.699c-0.237-0.165-0.931-0.495-1.811-0.495s-1.66 0.467-1.94 0.701z"></path>
<path fill="#563eaf" style="fill: var(--color4, #563eaf)" d="M31.284 16.211c0 0.186-0.151 0.337-0.337 0.337s-0.337-0.151-0.337-0.337c0-0.186 0.151-0.337 0.337-0.337s0.337 0.151 0.337 0.337z"></path>
<path fill="#563eaf" style="fill: var(--color4, #563eaf)" d="M5.6 19.074c0 0.186-0.151 0.337-0.337 0.337s-0.337-0.151-0.337-0.337c0-0.186 0.151-0.337 0.337-0.337s0.337 0.151 0.337 0.337z"></path>
</symbol>
<symbol id="icon-eye-hidden" viewBox="0 0 32 32">
<path d="M8.109 20.891c-3.492-2.061-5.109-4.891-5.109-4.891s4-7 13-7c1.305 0 2.504 0.147 3.601 0.399l-0.85 0.85c-0.855-0.158-1.772-0.248-2.752-0.248-8 0-11.8 6-11.8 6s1.515 2.392 4.645 4.155l-0.736 0.736zM12.399 22.601c1.097 0.252 2.297 0.399 3.601 0.399 9 0 13-7 13-7s-1.617-2.83-5.109-4.891l-0.736 0.736c3.13 1.763 4.645 4.155 4.645 4.155s-3.8 6-11.8 6c-0.98 0-1.897-0.090-2.752-0.248l-0.85 0.85zM19.899 15.101c0.066 0.289 0.101 0.59 0.101 0.899 0 2.209-1.791 4-4 4-0.309 0-0.61-0.035-0.899-0.101l0.899-0.899c0.768 0 1.536-0.293 2.121-0.879s0.879-1.354 0.879-2.121l0.899-0.899zM16.899 12.101c-0.289-0.066-0.59-0.101-0.899-0.101-2.209 0-4 1.791-4 4 0 0.309 0.035 0.61 0.101 0.899l0.899-0.899c0-0.768 0.293-1.536 0.879-2.121s1.354-0.879 2.121-0.879l0.899-0.899zM24 7l-17 17 1 1 17-17-1-1z"></path>
</symbol>
<symbol id="icon-eye" viewBox="0 0 32 32">
<path d="M16 9v0 0c9 0 13 7 13 7s-4 7-13 7c-9 0-13-7-13-7s4-7 13-7zM16 10c-8 0-11.8 6-11.8 6s3.8 6 11.8 6c8 0 11.8-6 11.8-6s-3.8-6-11.8-6v0 0zM16 20v0 0c-2.209 0-4-1.791-4-4s1.791-4 4-4c2.209 0 4 1.791 4 4s-1.791 4-4 4zM16 19c1.657 0 3-1.343 3-3s-1.343-3-3-3c-1.657 0-3 1.343-3 3s1.343 3 3 3v0 0zM16 17c0.552 0 1-0.448 1-1s-0.448-1-1-1c-0.552 0-1 0.448-1 1s0.448 1 1 1v0 0z"></path>
</symbol>
<symbol id="icon-plus" viewBox="0 0 20 20">
<path d="M10 0V20" stroke-width="2"/>
<path d="M0 10L20 10" stroke-width="2"/>
</symbol>
<symbol id="icon-minus" viewBox="0 0 20 2">
<path d="M0 1L20 0.999999" stroke-width="2"/>
</symbol>
</defs>
</svg>

