<svg xmlns="http://www.w3.org/2000/svg" width="1113" height="1024">
  <path fill="#ffb627" d="M759.924 137.514c-74.057-17.709-148.11-53.126-203.651-106.253-55.541 53.127-129.598 88.544-203.653 106.253 18.513 159.379 74.055 265.632 203.653 354.175 129.594-88.543 203.651-194.796 203.651-354.175z"/>
  <path fill="#fbfbfb" d="M685.862 796.89 167.478 212.5v283.343l407.302 442.72L685.862 796.89zM741.421 743.771l222.168-247.924v-265.63L611.827 619.809l129.594 123.962zM759.933 832.312v159.379l203.651-230.213V602.099L759.933 832.312zM371.13 832.312 167.479 602.099v159.379L371.13 991.691V832.312z"/>
</svg>